8_ID_stride5.mot
nRows=6
nColumns=38

name 8_ID_stride5.mot
datacolumns 38
datarows 6
range 2.8450000000 2.8700000000
endheader
time	pelvis_tilt_moment	pelvis_list_moment	pelvis_rotation_moment	pelvis_tx_force	pelvis_ty_force	pelvis_tz_force	hip_flexion_r_moment	hip_adduction_r_moment	hip_rotation_r_moment	knee_angle_r_moment	ankle_angle_r_moment	subtalar_angle_r_moment	mtp_angle_r_moment	hip_flexion_l_moment	hip_adduction_l_moment	hip_rotation_l_moment	knee_angle_l_moment	ankle_angle_l_moment	subtalar_angle_l_moment	mtp_angle_l_moment	lumbar_extension_moment	lumbar_bending_moment	lumbar_rotation_moment	arm_flex_r_moment	arm_add_r_moment	arm_rot_r_moment	elbow_flex_r_moment	pro_sup_r_moment	wrist_flex_r_moment	wrist_dev_r_moment	arm_flex_l_moment	arm_add_l_moment	arm_rot_l_moment	elbow_flex_l_moment	pro_sup_l_moment	wrist_flex_l_moment	wrist_dev_l_moment
        2.8450000000	       15.3906558157	      -86.7141326172	      -18.1407621462	      -10.2887694898	      214.0073966754	      202.5419399904	      -99.5905293754	        2.6308226804	       -0.3321562977	      -63.5724186079	       -0.8259303809	       -0.0655868414	        0.0327124182	       55.1170261191	      -14.4119899364	        8.3546856414	       23.0675723936	        5.1665247423	       -1.0224365454	        0.3038991850	      -18.2346232784	      -20.6887278310	       -2.4090249229	       -4.8402763836	        0.1939834485	        0.4983663985	       -1.4294739819	        0.0412767560	        0.0127810603	        0.1838887551	       -5.1712141242	       -0.3385304548	        0.5926007726	       -1.6693222569	        0.0388622100	        0.0280132598	        0.2023725764	
        2.8500000000	       44.8787243829	      -29.2929539500	       -4.0275961690	      -54.0326367826	      371.2285635662	      179.4596417963	      -50.4285368694	       -5.7617025642	        9.0965031189	      -31.8794051068	        4.9492443876	       10.1154230038	        0.1230164950	       47.4843730729	       -9.1284607342	        7.1844239282	       21.6747203514	        5.2124738362	       -0.9812740563	        0.3169082852	        3.5226613957	      -34.3529697804	       -1.0465613898	       -5.8873900820	        1.1682297966	        1.1677388653	       -0.4873575910	        0.0417861604	        0.0934386313	        0.1223988336	       -6.6943819128	       -0.9043710353	        0.4156511480	       -0.8035209784	        0.0152717911	        0.0334075489	        0.1286971740	
        2.8550000000	       66.1176136874	        6.4530873749	        6.3493435418	     -105.4512461204	      505.7283541676	      140.5933257236	      -29.3801849741	      -14.6110001079	       18.1875737409	      -16.6530231865	        2.6226895153	       14.8361485737	        0.2137791690	       45.2928165412	       -5.2987008708	        5.9894985639	       20.2056327028	        5.2004164435	       -0.9339401697	        0.3201195983	       27.4586184380	      -46.5595875625	        0.2317398259	       -6.3618331730	        2.1462839354	        1.7818610918	        0.6569428096	        0.0360340806	        0.1726630778	        0.0373207171	       -7.6035064822	       -1.3771291732	        0.2224633704	        0.2816008103	       -0.0121356590	        0.0419285459	        0.0311930898	
        2.8600000000	       81.3396902325	       39.1570083457	       18.0327028644	     -109.1860852915	      495.5784059059	       72.6633040547	      -28.2810349882	      -27.8670733786	       31.0378681590	       -1.8111432881	       -2.6801355987	       20.6071125970	        0.2906056598	       47.7000355648	       -2.6087251409	        4.7952405059	       19.8178448719	        5.1503483965	       -0.8797234877	        0.3158835894	       46.1902720806	      -50.5852721724	        1.1506131595	       -6.1416577550	        2.6472636425	        2.0094507275	        1.6970321460	        0.0252643593	        0.2191048657	       -0.0493485458	       -7.4949582955	       -1.3847816250	        0.1368012557	        1.2880568749	       -0.0357619096	        0.0530011725	       -0.0631637878	
        2.8650000000	       88.1193182038	       56.3074349332	       30.0992820253	     -103.2141858216	      415.7069594242	      -10.7362562235	      -30.8359834256	      -41.6806014526	       45.4830690957	        9.9769581251	      -11.6887397676	       27.3616171787	        0.3438673858	       54.8527460954	       -0.5721706392	        3.6464822508	       19.7551725353	        5.0400218520	       -0.8198114576	        0.3021832136	       54.9178294218	      -51.5330696091	        1.6167395621	       -5.3540914379	        2.8203346365	        2.0700812067	        2.4113192876	        0.0109549948	        0.2371193613	       -0.1200118424	       -6.8746309810	       -1.2368399322	        0.1119314434	        2.0033848726	       -0.0480712669	        0.0665771656	       -0.1333241976	
        2.8700000000	       77.0237640235	       53.1510104309	       40.4920557429	      -46.8228458179	      197.7094560707	      -79.2881781789	      -62.1809721570	      -50.1697024562	       57.1994424938	       15.5129031569	      -26.1847290558	       34.0950701536	        0.3681680718	       63.9222286048	        1.0014619700	        2.6059531835	       21.0855818572	        4.8567663146	       -0.7549117431	        0.2795880580	       54.2901410275	      -41.8505259321	        1.6828661761	       -4.0505076148	        2.2257528245	        1.6312022876	        2.6977597314	       -0.0047519508	        0.2075314820	       -0.1616100257	       -5.4705044432	       -0.4710819423	        0.3011753924	        2.3180853754	       -0.0489388706	        0.0835936957	       -0.1669576667	
